<?xml version="1.0" encoding="utf-8"?>
<!-- Generator: Adobe Illustrator 19.2.1, SVG Export Plug-In . SVG Version: 6.00 Build 0)  -->
<svg version="1.1" id="layer" xmlns="http://www.w3.org/2000/svg" xmlns:xlink="http://www.w3.org/1999/xlink" x="0px" y="0px"
	 viewBox="0 0 652 652" style="enable-background:new 0 0 652 652;" xml:space="preserve">
<style type="text/css">
	.st0{fill:#EC008C;}
</style>
<path class="st0" d="M85.3,263.3c-23.6,0-45.8,14.6-54.3,38c-10.9,29.9,4.6,63.1,34.5,74c6.5,2.4,13.1,3.5,19.7,3.5
	c23.6,0,45.8-14.6,54.3-38c10.9-29.9-4.6-63.1-34.5-74C98.5,264.5,91.9,263.3,85.3,263.3 M85.3,384.6c-35.1,0-63.6-28.5-63.6-63.6
	c0-35,28.5-63.6,63.6-63.6c35.1,0,63.6,28.5,63.6,63.6C148.8,356.1,120.3,384.6,85.3,384.6"/>
<path class="st0" d="M69,332.9v-23.7l5.4,3.1v17.4L69,332.9 M69,353.9v-14.7l5.4-3.1v8.4l40.6-23.4l-40.6-23.4v8.4L69,303v-14.7
	l56.9,32.9L69,353.9"/>
<path class="st0" d="M74.5,336.1v-6.3l15.1-8.7l-15.1-8.7v-6.3l25.9,15L74.5,336.1 M55.9,346.8v-51.4L69,303v6.3l-7.6-4.4v32.5
	l7.6-4.4v6.3L55.9,346.8"/>
<path class="st0" d="M74.5,312.4l-5.4-3.1V303l5.4,3.1V312.4 M69,339.2v-6.3l5.4-3.1v6.3L69,339.2"/>
<path d="M188.8,309.4v12.3h7c4.5,0,7.4-2.5,7.4-6.1v-0.1c0-4-2.9-6.1-7.4-6.1H188.8 M188.8,338.2h-6v-34.3h13.5c8,0,13,4.5,13,11.5
	v0.1c0,7.7-6.2,11.7-13.7,11.7h-6.8V338.2"/>
<polyline points="248.2,338.2 224.2,338.2 224.2,303.9 230.2,303.9 230.2,332.7 248.2,332.7 248.2,338.2 "/>
<path d="M276.4,338.7c-8.9,0-14.6-5.1-14.6-15.1v-19.7h6v19.5c0,6.4,3.3,9.8,8.7,9.8c5.3,0,8.6-3.2,8.6-9.5v-19.7h6v19.4
	C291.1,333.6,285.3,338.7,276.4,338.7"/>
<path d="M314.2,309.4v11.5h8.8c4.3,0,7.1-2.3,7.1-5.7v-0.1c0-3.7-2.6-5.7-7.1-5.7H314.2 M337.2,338.2h-7.1l-8.4-11.9h-7.5v11.9h-6
	v-34.3h15.3c4.3,0,7.7,1.3,9.9,3.4c1.8,1.9,2.8,4.4,2.8,7.4v0.1c0,5.6-3.4,9-8.2,10.4L337.2,338.2"/>
<path d="M367.1,310.9l-5.9,13.7H373L367.1,310.9 M385.1,338.2h-6.4l-3.5-8.3h-16.2l-3.5,8.3h-6.2l15.1-34.5h5.6L385.1,338.2"/>
<polyline points="423.8,338.2 399.7,338.2 399.7,303.9 405.8,303.9 405.8,332.7 423.8,332.7 423.8,338.2 "/>
<path d="M450.8,338.7c-5.2,0-10.2-1.8-14.3-5.5l3.6-4.3c3.3,2.8,6.6,4.4,10.8,4.4c3.7,0,6.1-1.7,6.1-4.3V329c0-2.5-1.4-3.8-7.7-5.2
	c-7.3-1.8-11.4-3.9-11.4-10.2v-0.1c0-5.9,4.9-9.9,11.7-9.9c5,0,9,1.5,12.4,4.3l-3.2,4.5c-3.1-2.3-6.2-3.5-9.3-3.5
	c-3.5,0-5.6,1.8-5.6,4.1v0.1c0,2.6,1.6,3.8,8.1,5.4c7.2,1.8,11,4.4,11,10v0.1C463,334.9,458,338.7,450.8,338.7"/>
<rect x="479.3" y="303.9" width="6" height="34.3"/>
<path d="M519.5,338.8c-10.7,0-17.8-7.6-17.8-17.6v-0.1c0-9.6,7.3-17.7,17.7-17.7c6,0,9.6,1.7,13.2,4.6l-3.8,4.5
	c-2.6-2.3-5.2-3.7-9.6-3.7c-6.3,0-11.1,5.5-11.1,12.1v0.1c0,7,4.6,12.2,11.6,12.2c3.2,0,6.2-1,8.3-2.6v-6.4h-8.8v-5.2h14.6v14.4
	C530.4,336.3,525.5,338.8,519.5,338.8"/>
<polyline points="578.8,338.2 572.7,338.2 572.7,323.8 556.4,323.8 556.4,338.2 550.4,338.2 550.4,303.9 556.4,303.9 556.4,318.2 
	572.7,318.2 572.7,303.9 578.8,303.9 578.8,338.2 "/>
<polyline points="610.8,338.2 604.8,338.2 604.8,309.5 593.9,309.5 593.9,303.9 621.7,303.9 621.7,309.5 610.8,309.5 610.8,338.2 
	"/>
</svg>
